<svg xmlns="http://www.w3.org/2000/svg" viewBox="0 0 387.55 305.75"><path d="M157.89,303.53a297,297,0,0,1-40.11-43.16l0-.05c-1.16-1.53-2.31-3.11-3.45-4.69-1.84-2.56-3.66-5.21-5.44-7.91-.34-.51-.68-1-1-1.55-.78-1.2-1.49-2.31-2.13-3.35-1.5-2.4-3-4.87-4.4-7.34-1.74-3-3.43-6.16-5-9.33a168.76,168.76,0,0,1-17.08-52.73c-.27-2-.51-4-.7-6s-.37-4.35-.49-6.65-.17-4.27-.17-6.31l0-.36c0-.23,0-.46,0-.7,0-1.76.06-3.58.14-5.6a152.64,152.64,0,0,1,9.73-46.45c.71-1.9,1.38-3.63,2.06-5.27s1.44-3.43,2.18-5.11c.82-1.84,1.6-3.52,2.35-5.08s1.64-3.34,2.49-5c1.9-3.7,4-7.38,6.15-11.06A268.5,268.5,0,0,0,32.46,56.47L16.28,56l-5,15.39a236.7,236.7,0,0,0-7,29.31c-.63,3.66-1.26,7.69-1.84,11.94-.22,1.63-.43,3.3-.64,5s-.38,3.38-.55,5.11c0,.19,0,.39-.05.57a225,225,0,0,0,.76,52.43c.24,1.66.5,3.32.78,5s.58,3.31.91,5,.69,3.28,1.06,4.92.79,3.26,1.22,4.88A133.27,133.27,0,0,0,22.45,233.7q1.32,2,2.71,4l.39.52q1.66,2.34,3.42,4.56c1.17,1.49,2.42,3,3.67,4.47s2.33,2.64,3.54,3.92c11.59,12.32,25.29,21.94,39.52,29.45q4.29,2.26,8.63,4.28c2.39,1.11,4.79,2.16,7.18,3.16,1.13.48,2.26.94,3.4,1.39l1.59.63q4.19,1.62,8.32,3.06c1.71.58,3.42,1.15,5.11,1.69a277,277,0,0,0,50.52,10.88Z" fill="#e66438"/><path d="M207.14,9.74,194.22,0l-13,9.66a236.59,236.59,0,0,0-22.66,19.87c-2.63,2.63-5.48,5.55-8.41,8.68-1.12,1.21-2.26,2.45-3.4,3.72s-2.27,2.53-3.41,3.85l-.37.44c-3.93,4.55-7.91,9.47-11.79,14.72-1.86,2.52-3.69,5.14-5.5,7.8s-3.45,5.19-5.11,7.88c-2.54,4.13-5,8.41-7.26,12.83q-1.15,2.23-2.26,4.52T109,98.55q-1,2.3-2,4.62c-.64,1.56-1.24,3.12-1.83,4.69a133.73,133.73,0,0,0-8.57,40.76c-.07,1.62-.12,3.24-.12,4.87l0,.65c0,1.91,0,3.8.15,5.69s.23,3.86.42,5.77.38,3.5.62,5.24c2.34,16.76,8,32.53,15.24,46.88q2.19,4.32,4.58,8.47,2,3.44,4,6.74c.65,1,1.3,2.07,2,3.09.31.48.62,1,.94,1.43q2.47,3.75,5,7.31c1.06,1.47,2.12,2.91,3.2,4.33a277,277,0,0,0,34.94,38.07c-.26-1-.52-2.13-.8-3.3a296.22,296.22,0,0,1-7.8-58.4v-.05c-.06-1.92-.1-3.88-.11-5.83,0-3.14,0-6.36.13-9.6,0-.61,0-1.22.06-1.85.06-1.43.12-2.74.2-4,.16-2.82.38-5.69.65-8.52.33-3.48.76-7,1.28-10.53,2.87-19.45,8.43-37.25,16.52-52.91.93-1.78,1.9-3.57,2.89-5.31.63-1.1,1.31-2.24,2-3.39.46-.77.93-1.53,1.42-2.31,1.18-1.86,2.33-3.58,3.51-5.25l.2-.3.28-.42.11-.16c1-1.43,2.11-2.89,3.35-4.5.78-1,1.59-2,2.4-3a153.76,153.76,0,0,1,32.38-29.34c1.68-1.14,3.22-2.16,4.72-3.11s3.18-2,4.74-2.91c1.74-1,3.34-2,4.85-2.79s3.27-1.78,4.92-2.64c3.68-1.91,7.49-3.73,11.4-5.47A268.53,268.53,0,0,0,207.14,9.74Z" fill="#feb800"/><path d="M376.72,72.52,371.8,57.11l-16.18.38a239.57,239.57,0,0,0-30,3.13C322,61.24,318,62,313.77,62.85c-1.61.33-3.26.69-4.93,1.06s-3.31.77-5,1.18l-.56.14c-5.83,1.45-11.92,3.17-18.11,5.21q-4.49,1.47-9,3.17-4.35,1.64-8.72,3.49c-4.46,1.91-8.92,4-13.33,6.28q-2.23,1.16-4.46,2.39c-1.47.81-2.92,1.66-4.37,2.52S242.41,90,241,90.92s-2.82,1.82-4.21,2.77A133.57,133.57,0,0,0,206.24,122c-.4.51-.77,1-1.16,1.56-.59.78-1.18,1.55-1.75,2.34l-.36.55c-1.1,1.56-2.15,3.14-3.17,4.74-.19.3-.38.62-.58.93-.82,1.32-1.64,2.67-2.41,4q-1.31,2.3-2.52,4.63c-.17.33-.33.67-.5,1a150.55,150.55,0,0,0-14.14,46.05q-.71,4.81-1.16,9.57c-.25,2.63-.45,5.23-.6,7.82-.07,1.23-.13,2.45-.18,3.67l-.06,1.71q-.15,4.49-.12,8.86c0,1.81.05,3.61.1,5.39a277.29,277.29,0,0,0,7.31,54.72c1.62,6.85,3,11.29,3.35,12.49l0,.1s0,.08,0,.11l1.13,3.57,1,3.06.68,2.14,1.24,3.89.26.8.16.52.14.46.32,1,2.59-.06,2.31-.06H199l4.06-.09h.3l.17,0H204l.09,0,5.32-.13h0c.4,0,1.68-.05,3.65-.16,2.9-.16,7.35-.49,13-1.13,3.93-.44,8.4-1,13.33-1.84,34.75-5.64,91.13-21.39,122.38-65.26C408.19,173.77,378,76.63,376.72,72.52Z" fill="#4b8df0"/></svg>